<?xml version="1.0" encoding="UTF-8" standalone="no"?>
<svg
   width="696.36432"
   height="208.40686"
   viewBox="0 0 696.36432 208.40686"
   version="1.1"
   xml:space="preserve"
   style="clip-rule:evenodd;fill-rule:evenodd;stroke-linejoin:round;stroke-miterlimit:2"
   id="svg2"
   sodipodi:docname="header_logo.svg"
   inkscape:version="1.4.3 (0d15f75, 2025-12-25)"
   xmlns:inkscape="http://www.inkscape.org/namespaces/inkscape"
   xmlns:sodipodi="http://sodipodi.sourceforge.net/DTD/sodipodi-0.dtd"
   xmlns="http://www.w3.org/2000/svg"
   xmlns:svg="http://www.w3.org/2000/svg"><defs
   id="defs2" /><sodipodi:namedview
   id="namedview2"
   pagecolor="#ffffff"
   bordercolor="#000000"
   borderopacity="0.25"
   inkscape:showpageshadow="2"
   inkscape:pageopacity="0.0"
   inkscape:pagecheckerboard="0"
   inkscape:deskcolor="#d1d1d1"
   inkscape:zoom="1.2256267"
   inkscape:cx="348.39318"
   inkscape:cy="118.30682"
   inkscape:window-width="1540"
   inkscape:window-height="1099"
   inkscape:window-x="437"
   inkscape:window-y="25"
   inkscape:window-maximized="0"
   inkscape:current-layer="svg2" />
    <path
   d="m 350.94322,112.68432 c -2.893,3.684 -12.388,15.329 -10.709,1.813 0.007,-0.058 3.188,-5.105 0.364,-4.278 -3.821,1.118 -12.713,10.472 -27.006,9.758 -6.868,-0.343 -3.962,-14.917 -5.85,-13.267 -30.296,26.493 -36.088,18.723 -35.253,15.75 0.315,-1.12 26.029,-4.56 12.922,-16.622 -5.07,-4.667 -20.002,12.701 -62.685,32.9 -2.518,1.192 -20.387,4.084 -6.256,-34.258 8.398,-22.789998 34.768,-64.639998 58.902,-94.162998 0.772,-0.9449995 5.972,-12.6269995 12.358,-9.90799952 11.362,4.83500002 -15.227,25.58999952 -30.798,47.38799952 -35.956,50.34 -48.6,91.328998 -34.206,84.941998 23.709,-10.522 56.366,-29.332 55.087,-32.239 -8.156,-18.536998 28.274,-21.392998 16.559,-6.182998 -0.804,1.042 -8.214,6.822998 -6.423,7.774998 6.183,3.286 3.738,5.896 7.763,8.279 1.752,1.037 17.752,-15.132998 19.178,-16.574998 3.959,-4 7.158,1.508 5.912,3.836 -0.445,0.832 -8.549,10.084998 -5.315,16.030998 1.532,2.816 27.826,-6.909 34.983,-17.182998 12.778,-18.343 34.092,-50.052 37.903,-54.164 1.35,-1.456 9.725,-13.729 13.998,-9.478 4.402,4.38 -37.235,46.831 -46.042,67.637998 -2.406,5.684 38.915,-22.464998 46.958,-19.459998 5.886,2.2 -22.31,10.193 -41.395,23.820998 -3.011,2.151 -5.972,5.369 -5.972,5.369 18.679,14.194 45.718,-15.098998 55.809,-19.465998 6.746,-2.92 7.006,-3.909 13.849,-1.001 8.097,3.441 50.846,-61.56 60.098,-53.203 3.809,3.44 -12.674,16.073 -24.842,28.098 -23.479,23.203 -42.721,53.708998 -30.178,53.454998 17.655,-0.357 31.459,-34.877998 45.033,-21.567998 1.475,1.446 0.42,6.546998 7.04,3.187 9.556,-4.851 15.253,-13.333 26.162,-3.435 0.586,0.532 5.308,1.236 4.512,4.217998 -2.119,7.936 -6.498,16.14 -0.503,10.365 0.937,-0.903 1.784,-0.452 19.512,-13.578998 15.368,-11.381 16.847,-2.323 23.229,-1.993 9.456,0.49 -5.595,20.410998 2.934,14.089998 8.354,-6.19 35.669,-23.722998 27.778,-10.934998 -8.082,13.097998 26.967,-5.945 58.341,-8.383 54.754,-4.254 52.212,8.408 51.379,12.556998 -7.172,35.727 -95.362,84.018 -97.463,84.445 -6.681,1.357 -4.359,-5.387 -0.061,-7.669 66.36,-35.23 112.647,-82.520998 80.061,-84.332998 -30.869,-1.717 -54.387,4.806 -78.008,11.004998 -18.64,4.892 -36.426,27.422 -23.738,0.618 5.719,-12.079998 -32.967,26.08 -28.222,4.877 1.139,-5.087 -19.803,18.163 -26.175,4.074 -0.364,-0.807 2.148,-6.872 -1.008,-4.527 -9.597,7.132 -11.16,5.346 -18.088,15.216 -22.239,31.686 -81.596,66.255 -110.92,79.92 -8.148,3.797 -14.275,2.378 -10.588,-2.485 22.968,-30.302 70.651,-71.314 103.884,-75.773 10.069,-1.35 11.169,-2.177 16.744,-15.478 2.947,-7.031 -25.725,18.988 -24.26,0.998 0.307,-3.765 3.9,-6.749 0.34,-5.267 -15.325,6.378 -23.66,24.461 -33.891,10.293 -0.886,-1.228 -28.579,15.114 -22.443,-6.992 1.997,-7.193 -25.472,23.487 -31.735,9.097 -1.469,-3.377 3.817,-10.783 -0.765,-8.833 -2.574,1.095 -25.86,17.649 -38.794,0.885 z m -61.293,-23.670998 c -0.762,0.198 -6.991,1.81 -8.169,5.497 -2.458,7.689998 16.349,-3.672 8.169,-5.497 z m 208.991,8.078 c -10.34,1.424 -23.175,24.685998 -6.092,13.297998 1.266,-0.843 17.354,-8.131 10.873,-13.552998 -0.294,-0.246 -0.829,-0.694 -4.781,0.255 z m -45.994,20.929998 c 12.735,-1.728 31.537,-24.968998 8.928,-16.614 -1.89,0.698 -16.983,14.83 -8.928,16.614 z m 93.244,-12.225 c 3.336,-3.547 6.547,-3.386 3.478,-6.999998 -7.197,-8.475 -15.803,5.639998 -16.549,6.862998 -11.493,18.851 12.239,0.77 13.071,0.137 z m -147.116,91.115 c 69.191,-42.75 96.302,-67.848 91.872,-67.204 -42.291,6.147 -115.909,82.056 -91.872,67.204 z m 20.877,-102.814998 c -17.646,2.355 -25.432,23.604998 -21.854,25.119998 5.152,2.18 21.052,-15.234 22.574,-16.899 3.995,-4.375998 5.026,-6.894998 -0.72,-8.220998 z"
   id="path1" />
    <path
   d="m 107.65222,124.09132 c -8.468002,-0.419 -9.007002,0.406 -15.238002,-5.251 -5.056,-4.591 -68.161,36.046 -89.8649995,22.885 -9.901,-6.004 8.2169995,-61.473998 68.8239995,-128.408998 12.961,-14.31399952 27.601,-6.7279995 18.038,-0.04 -63.841,44.651 -83.3309995,120.179998 -83.1799995,122.341998 0.373,5.344 20.6609995,4.755 60.3439995,-12.244 12.823,-5.493 23.465,-6.119 25.262,-12.743 0.674,-2.489 5.964,-21.993998 24.871002,-20.494998 4.167,0.331 10.587,8.338 -15.311,25.138998 -6.079002,3.944 4.74,3.82 5.259,3.814 26.494,-0.302 22.649,-16.786 49.052,-15.953 3.285,0.104 7.419,4.94 7.454,5.473 1.557,23.803 -40.475,32.265 -37.931,15.892 1.432,-9.218 -4.644,-2.49 -17.579,-0.41 z m 0.238,-19.295 c 2.591,-2.039 2.604,-1.995 2.799,-2.202 12.473,-13.262998 -11.170002,-4.848998 -12.712002,7.939 -0.432,3.586 9.324002,-5.288 9.913002,-5.737 z m 42.762,4.295 c -1.471,0.069 -11.391,0.533 -16.72,7.706 -10.87,14.635 14.049,15.296 22.902,-3.166 2.291,-4.779 -0.884,-4.145 -6.182,-4.54 z"
   id="path2" />
</svg>
